<svg width="32" height="32" viewBox="0 0 32 32" xmlns="http://www.w3.org/2000/svg">
    <!-- Clock face -->
    <circle cx="16" cy="16" r="15" fill="#ffffff" stroke="#000000" stroke-width="1" />

    <!-- Hour markers -->
    <g stroke="#000000" stroke-width="1">
        <!-- 12 o'clock -->
        <line x1="16" y1="2" x2="16" y2="5" />
        <!-- 3 o'clock -->
        <line x1="30" y1="16" x2="27" y2="16" />
        <!-- 6 o'clock -->
        <line x1="16" y1="30" x2="16" y2="27" />
        <!-- 9 o'clock -->
        <line x1="2" y1="16" x2="5" y2="16" />

        <!-- Minor markers -->
        <line x1="24.5" y1="4.5" x2="23.5" y2="5.5" />
        <line x1="27.5" y1="7.5" x2="26.5" y2="8.5" />
        <line x1="27.5" y1="24.5" x2="26.5" y2="23.5" />
        <line x1="24.5" y1="27.5" x2="23.5" y2="26.5" />
        <line x1="7.5" y1="27.5" x2="8.5" y2="26.5" />
        <line x1="4.5" y1="24.5" x2="5.5" y2="23.5" />
        <line x1="4.5" y1="7.5" x2="5.5" y2="8.5" />
        <line x1="7.5" y1="4.5" x2="8.5" y2="5.5" />
    </g>

    <!-- Hour hand -->
    <line x1="16" y1="16" x2="{{ hour_x }}" y2="{{ hour_y }}" stroke="#000000" stroke-width="2"
        stroke-linecap="round" />

    <!-- Minute hand -->
    <line x1="16" y1="16" x2="{{ minute_x }}" y2="{{ minute_y }}" stroke="#000000"
        stroke-width="1.5" stroke-linecap="round" />

    <!-- Center dot -->
    <circle cx="16" cy="16" r="1.5" fill="#000000" />
</svg> 